<svg width="238" height="49" viewBox="0 0 238 49" fill="none" xmlns="http://www.w3.org/2000/svg">
<path fill-rule="evenodd" clip-rule="evenodd" d="M20.2118 0.0192316C9.88089 -0.332063 3.19383 4.12934 0.150909 13.4035C-0.0503006 22.611 -0.0503006 31.8189 0.150909 41.0264C5.22737 43.6121 10.2553 46.2699 15.2343 49C15.3347 37.704 15.4355 26.4082 15.536 15.1121C17.3873 9.32472 21.4598 7.09388 27.7535 8.42C30.8712 9.60665 32.8321 11.7424 33.636 14.8274C33.8372 17.7699 33.8372 20.7128 33.636 23.6553C32.0369 30.86 27.361 34.8944 19.6085 35.7581C24.5878 38.4409 29.6157 41.0512 34.6918 43.5893C34.7923 38.6534 34.8931 33.7171 34.9935 28.7812C35.0342 23.3589 34.8834 17.9482 34.541 12.5492C32.2151 5.84384 27.4388 1.66718 20.2118 0.0192316Z" fill="#4D3C77"/>
<path d="M51.6094 14.375C52.1016 14.3932 52.5208 14.5755 52.8672 14.9219C53.2135 15.25 53.3958 15.6602 53.4141 16.1523V20.7188H62.3008V16.1523C62.319 15.6419 62.5104 15.2227 62.875 14.8945C63.2396 14.5482 63.6771 14.375 64.1875 14.375C64.6797 14.3932 65.099 14.5755 65.4453 14.9219C65.7917 15.25 65.974 15.6602 65.9922 16.1523V29.5508C65.8828 30.6445 65.2812 31.237 64.1875 31.3281C63.6771 31.3281 63.2305 31.1641 62.8477 30.8359C62.4831 30.4896 62.3008 30.0612 62.3008 29.5508V24.3828H53.4141V29.5508C53.3047 30.6445 52.7031 31.237 51.6094 31.3281C51.099 31.3281 50.6523 31.1641 50.2695 30.8359C49.9049 30.4896 49.7227 30.0612 49.7227 29.5508V16.1523C49.7409 15.6419 49.9323 15.2227 50.2969 14.8945C50.6615 14.5482 51.099 14.375 51.6094 14.375ZM74.623 30.9453C73.0188 30.8906 71.8066 30.5169 70.9862 29.8242C70.1659 29.1133 69.5735 28.3203 69.2089 27.4453C68.8443 26.5521 68.662 25.6497 68.662 24.7383C68.662 23.7904 68.8352 22.8789 69.1816 22.0039C69.5461 21.1107 70.1386 20.3177 70.9589 19.625C71.7974 18.9141 72.8547 18.5495 74.1308 18.5312H82.9902C84.2662 18.5495 85.3144 18.9141 86.1347 19.625C86.9732 20.3177 87.5657 21.1107 87.912 22.0039C88.2766 22.8789 88.4589 23.7904 88.4589 24.7383C88.4589 25.6497 88.2766 26.5521 87.912 27.4453C87.5474 28.3203 86.955 29.1133 86.1347 29.8242C85.3144 30.5169 84.1021 30.8906 82.498 30.9453H74.623ZM74.0214 22.1953C73.6751 22.1953 73.3743 22.3411 73.1191 22.6328C72.8639 22.9062 72.6724 23.2344 72.5448 23.6172C72.4355 23.9818 72.3808 24.3464 72.3808 24.7109C72.3808 25.0938 72.4355 25.4766 72.5448 25.8594C72.6724 26.224 72.8639 26.5521 73.1191 26.8438C73.3743 27.1172 73.6751 27.263 74.0214 27.2812H83.0995C83.4459 27.263 83.7467 27.1172 84.0019 26.8438C84.2571 26.5521 84.4394 26.224 84.5487 25.8594C84.6764 25.4766 84.7402 25.0938 84.7402 24.7109C84.7402 24.3464 84.6764 23.9818 84.5487 23.6172C84.4394 23.2344 84.2571 22.9062 84.0019 22.6328C83.7467 22.3411 83.4459 22.1953 83.0995 22.1953H74.0214ZM94.8748 33.3242C94.7655 34.418 94.1639 35.0104 93.0702 35.1016C92.5597 35.1016 92.1131 34.9284 91.7303 34.582C91.3657 34.2539 91.1834 33.8346 91.1834 33.3242V20.3086C91.2017 19.7982 91.3931 19.3789 91.7577 19.0508C92.1222 18.7044 92.5597 18.5312 93.0702 18.5312H104.555C106.159 18.5859 107.371 18.9688 108.191 19.6797C109.012 20.3724 109.604 21.1654 109.969 22.0586C110.333 22.9336 110.515 23.8268 110.515 24.7383C110.515 25.6862 110.333 26.6068 109.969 27.5C109.622 28.375 109.03 29.168 108.191 29.8789C107.371 30.5716 106.323 30.9271 105.047 30.9453H98.1561C97.6457 30.9453 97.2173 30.763 96.8709 30.3984C96.5064 30.0521 96.3241 29.6237 96.3241 29.1133C96.3241 28.6029 96.4972 28.1745 96.8436 27.8281C97.2082 27.4635 97.6457 27.2812 98.1561 27.2812H105.156C105.502 27.2812 105.803 27.1445 106.058 26.8711C106.314 26.5794 106.496 26.2513 106.605 25.8867C106.733 25.5039 106.797 25.1302 106.797 24.7656C106.797 24.3828 106.733 24.0091 106.605 23.6445C106.496 23.2617 106.314 22.9336 106.058 22.6602C105.803 22.3685 105.502 22.2135 105.156 22.1953H95.5858C95.1118 22.2135 94.8748 22.4505 94.8748 22.9062V33.3242ZM117.123 33.3242C117.013 34.418 116.412 35.0104 115.318 35.1016C114.808 35.1016 114.361 34.9284 113.978 34.582C113.614 34.2539 113.431 33.8346 113.431 33.3242V20.3086C113.45 19.7982 113.641 19.3789 114.006 19.0508C114.37 18.7044 114.808 18.5312 115.318 18.5312H126.803C128.407 18.5859 129.619 18.9688 130.439 19.6797C131.26 20.3724 131.852 21.1654 132.217 22.0586C132.581 22.9336 132.763 23.8268 132.763 24.7383C132.763 25.6862 132.581 26.6068 132.217 27.5C131.87 28.375 131.278 29.168 130.439 29.8789C129.619 30.5716 128.571 30.9271 127.295 30.9453H120.404C119.894 30.9453 119.465 30.763 119.119 30.3984C118.754 30.0521 118.572 29.6237 118.572 29.1133C118.572 28.6029 118.745 28.1745 119.092 27.8281C119.456 27.4635 119.894 27.2812 120.404 27.2812H127.404C127.75 27.2812 128.051 27.1445 128.306 26.8711C128.562 26.5794 128.744 26.2513 128.853 25.8867C128.981 25.5039 129.045 25.1302 129.045 24.7656C129.045 24.3828 128.981 24.0091 128.853 23.6445C128.744 23.2617 128.562 22.9336 128.306 22.6602C128.051 22.3685 127.75 22.2135 127.404 22.1953H117.834C117.36 22.2135 117.123 22.4505 117.123 22.9062V33.3242ZM141.285 30.9453C139.681 30.8906 138.468 30.5169 137.648 29.8242C136.828 29.1133 136.235 28.3203 135.871 27.4453C135.506 26.5521 135.324 25.6497 135.324 24.7383C135.324 23.7904 135.497 22.8789 135.843 22.0039C136.208 21.1107 136.8 20.3177 137.621 19.625C138.459 18.9141 139.517 18.5495 140.793 18.5312H151.183C151.694 18.5312 152.122 18.7044 152.468 19.0508C152.833 19.3789 153.015 19.7799 153.015 20.2539C153.015 20.7461 152.833 21.1654 152.468 21.5117C152.122 21.8398 151.694 22.0039 151.183 22.0039H140.957C140.556 22.0039 140.2 22.1406 139.89 22.4141C139.599 22.6875 139.38 23.043 139.234 23.4805C139.106 23.918 139.043 24.3464 139.043 24.7656C139.043 25.2214 139.106 25.668 139.234 26.1055C139.38 26.543 139.599 26.8984 139.89 27.1719C140.2 27.4271 140.556 27.5638 140.957 27.582H151.183C151.694 27.582 152.122 27.7461 152.468 28.0742C152.833 28.4023 153.015 28.7943 153.015 29.25C153.015 29.724 152.833 30.125 152.468 30.4531C152.122 30.7812 151.694 30.9453 151.183 30.9453H141.285ZM152.687 24.6836C152.687 25.0299 152.532 25.3307 152.222 25.5859C151.949 25.8229 151.603 25.9414 151.183 25.9414H142.242C141.823 25.9414 141.467 25.8229 141.175 25.5859C140.884 25.3307 140.738 25.0299 140.738 24.6836C140.738 24.3555 140.884 24.0638 141.175 23.8086C141.467 23.5716 141.823 23.4531 142.242 23.4531H151.183C151.603 23.4531 151.958 23.5807 152.25 23.8359C152.541 24.0729 152.687 24.3555 152.687 24.6836ZM156.314 21.9766C156.66 21.1016 157.244 20.3177 158.064 19.625C158.903 18.9141 159.96 18.5495 161.236 18.5312H171.517C172.028 18.5312 172.456 18.7135 172.802 19.0781C173.167 19.4245 173.349 19.8529 173.349 20.3633C173.349 20.8737 173.167 21.3112 172.802 21.6758C172.456 22.0221 172.028 22.1953 171.517 22.1953H161.127C160.78 22.1953 160.479 22.3411 160.224 22.6328C159.969 22.9062 159.768 23.2344 159.623 23.6172C159.495 24 159.431 24.3646 159.431 24.7109V29.4961C159.322 30.5898 158.72 31.1823 157.627 31.2734C157.116 31.2734 156.67 31.1094 156.287 30.7812C155.922 30.4349 155.74 30.0065 155.74 29.4961V24.7383H155.767C155.767 23.7904 155.949 22.8698 156.314 21.9766Z" fill="#F9EAEA"/>
<path d="M177.468 14.375C177.979 14.375 178.416 14.5482 178.781 14.8945C179.145 15.2227 179.337 15.6419 179.355 16.1523V22.7422C179.337 23.4896 179.382 24.1823 179.492 24.8203C179.619 25.4401 179.911 25.9961 180.367 26.4883C180.822 26.9805 181.397 27.2448 182.089 27.2812H190.839C191.35 27.2995 191.769 27.4909 192.097 27.8555C192.444 28.2201 192.617 28.6576 192.617 29.168C192.598 29.6602 192.416 30.0794 192.07 30.4258C191.742 30.7539 191.332 30.9271 190.839 30.9453H181.16C179.884 30.8724 178.826 30.444 177.988 29.6602C177.168 28.8581 176.575 27.8828 176.21 26.7344C175.864 25.5859 175.682 24.3646 175.664 23.0703V16.1523C175.682 15.6602 175.864 15.25 176.21 14.9219C176.557 14.5755 176.976 14.3932 177.468 14.375ZM210.08 29.4961V22.9062C210.08 22.4505 209.843 22.2135 209.369 22.1953H199.798C199.452 22.2135 199.151 22.3685 198.896 22.6602C198.641 22.9336 198.449 23.2617 198.322 23.6445C198.212 24.0091 198.158 24.3828 198.158 24.7656C198.158 25.1302 198.212 25.5039 198.322 25.8867C198.449 26.2513 198.641 26.5794 198.896 26.8711C199.151 27.1445 199.452 27.2812 199.798 27.2812H206.798C207.309 27.2812 207.737 27.4635 208.083 27.8281C208.448 28.1745 208.63 28.6029 208.63 29.1133C208.63 29.6237 208.448 30.0521 208.083 30.3984C207.737 30.763 207.309 30.9453 206.798 30.9453H199.908C198.632 30.9271 197.574 30.5716 196.736 29.8789C195.915 29.168 195.323 28.375 194.958 27.5C194.612 26.6068 194.439 25.6862 194.439 24.7383C194.439 23.8268 194.621 22.9336 194.986 22.0586C195.35 21.1654 195.943 20.3724 196.763 19.6797C197.583 18.9688 198.796 18.5859 200.4 18.5312H211.884C212.395 18.5312 212.832 18.7044 213.197 19.0508C213.561 19.3789 213.753 19.7982 213.771 20.3086V29.4961C213.771 30.0065 213.58 30.4349 213.197 30.7812C212.832 31.1094 212.395 31.2734 211.884 31.2734C210.79 31.1823 210.189 30.5898 210.08 29.4961ZM220.57 16.1523V26.5703C220.57 27.026 220.807 27.263 221.281 27.2812H230.851C231.197 27.263 231.498 27.1172 231.753 26.8438C232.008 26.5521 232.191 26.224 232.3 25.8594C232.428 25.4766 232.492 25.0938 232.492 24.7109C232.492 24.3464 232.428 23.9818 232.3 23.6172C232.191 23.2344 232.008 22.9062 231.753 22.6328C231.498 22.3411 231.197 22.1953 230.851 22.1953H223.851C223.341 22.1953 222.903 22.0221 222.538 21.6758C222.192 21.3112 222.019 20.8737 222.019 20.3633C222.019 19.8529 222.201 19.4245 222.566 19.0781C222.912 18.7135 223.341 18.5312 223.851 18.5312H230.742C232.018 18.5495 233.066 18.9141 233.886 19.625C234.725 20.3177 235.317 21.1107 235.663 22.0039C236.028 22.8789 236.21 23.7904 236.21 24.7383C236.21 25.6497 236.028 26.5521 235.663 27.4453C235.299 28.3203 234.706 29.1133 233.886 29.8242C233.066 30.5169 231.854 30.8906 230.249 30.9453H218.765C218.255 30.9453 217.817 30.7812 217.452 30.4531C217.088 30.1068 216.897 29.6784 216.878 29.168V16.1523C216.878 15.6419 217.061 15.2227 217.425 14.8945C217.808 14.5482 218.255 14.375 218.765 14.375C219.859 14.4661 220.46 15.0586 220.57 16.1523Z" fill="#4D3C77"/>
</svg>
